<?xml version="1.0" standalone="no"?>
<!DOCTYPE svg PUBLIC "-//W3C//DTD SVG 20010904//EN"
 "http://www.w3.org/TR/2001/REC-SVG-20010904/DTD/svg10.dtd">
<svg version="1.0" xmlns="http://www.w3.org/2000/svg"
 width="832.000000pt" height="832.000000pt" viewBox="0 0 832.000000 832.000000"
 preserveAspectRatio="xMidYMid meet">
<metadata>
Created by potrace 1.14, written by Peter Selinger 2001-2017
</metadata>
<g transform="translate(0.000000,832.000000) scale(0.100000,-0.100000)"
fill="#000000" stroke="none">
<path d="M3598 7995 c-1 -2 -46 -6 -98 -9 -52 -4 -126 -11 -165 -17 -38 -6
-85 -12 -104 -15 -47 -6 -131 -21 -216 -40 -11 -2 -29 -6 -40 -8 -11 -2 -49
-12 -85 -21 -36 -9 -69 -18 -75 -19 -5 -2 -30 -9 -55 -16 -25 -7 -49 -14 -55
-16 -39 -9 -210 -70 -310 -110 -104 -42 -412 -190 -470 -227 -82 -51 -127 -77
-135 -77 -6 0 -10 -4 -10 -8 0 -5 -12 -15 -27 -23 -82 -42 -362 -255 -495
-377 -195 -177 -417 -425 -531 -592 -17 -25 -37 -51 -43 -58 -7 -6 -16 -21
-19 -32 -3 -11 -10 -20 -15 -20 -5 0 -12 -9 -15 -20 -3 -11 -12 -26 -19 -32
-17 -19 -76 -117 -76 -128 0 -6 -4 -10 -10 -10 -5 0 -10 -5 -10 -10 0 -6 -11
-28 -24 -48 -28 -44 -134 -253 -165 -327 -12 -27 -26 -59 -31 -70 -62 -136
-176 -490 -206 -640 -2 -11 -6 -31 -9 -45 -17 -78 -33 -163 -40 -215 -15 -113
-26 -199 -31 -240 -8 -70 -12 -625 -5 -625 3 0 7 -26 8 -58 2 -60 9 -123 18
-182 4 -19 8 -51 11 -70 2 -19 9 -60 15 -90 6 -30 12 -64 14 -75 7 -44 46
-204 65 -270 12 -38 23 -80 26 -92 10 -50 111 -322 156 -423 37 -83 118 -244
151 -305 84 -150 250 -406 269 -413 4 -2 8 -10 8 -17 0 -7 3 -15 8 -17 4 -1
26 -28 49 -58 23 -30 54 -68 68 -85 14 -16 47 -55 73 -85 56 -66 313 -322 368
-367 21 -18 53 -44 69 -58 17 -14 73 -58 125 -98 52 -40 97 -75 98 -79 2 -5 8
-8 14 -8 6 0 27 -13 48 -30 21 -16 40 -30 43 -30 2 0 38 -21 78 -48 126 -80
114 -73 294 -167 154 -80 476 -214 552 -230 10 -2 38 -11 63 -20 78 -28 335
-91 407 -100 12 -2 35 -6 52 -10 34 -7 83 -15 126 -20 17 -2 50 -6 75 -10 46
-6 85 -10 220 -21 41 -3 140 -5 220 -5 167 1 176 1 193 1 32 -1 251 18 286 25
10 2 42 6 72 9 30 3 68 9 84 11 17 3 41 8 54 10 14 2 47 9 75 15 28 5 60 11
71 13 11 1 26 6 32 10 7 5 13 6 13 3 0 -2 15 0 33 5 17 5 43 11 57 14 14 3 84
23 155 45 156 49 145 45 170 54 161 61 249 97 344 142 l115 54 60 -63 c34 -36
102 -107 152 -160 l90 -95 1063 0 1063 0 -28 30 c-16 17 -54 56 -84 88 -30 31
-113 120 -185 196 -71 76 -150 159 -175 185 -25 26 -91 96 -146 156 -56 59
-130 137 -164 173 -34 36 -114 121 -178 189 -65 68 -147 156 -184 195 -37 39
-68 75 -68 80 0 5 15 25 33 46 51 59 122 154 192 260 17 25 36 51 43 58 6 7
12 17 12 22 0 8 35 66 57 95 42 54 265 510 263 538 0 4 6 20 14 35 12 23 70
181 80 217 20 72 30 107 41 142 8 23 16 52 19 65 2 13 11 52 19 88 17 72 28
126 41 201 3 19 8 45 11 59 3 14 7 45 10 70 3 25 8 59 10 75 30 227 36 692 10
845 -2 14 -7 50 -11 80 -11 97 -12 104 -19 145 -10 65 -15 89 -19 110 -26 128
-36 175 -41 186 -2 8 -7 25 -9 39 -14 69 -71 257 -96 314 -10 25 -17 46 -15
46 4 0 -55 148 -98 245 -37 84 -164 332 -194 380 -15 25 -43 68 -60 96 -18 28
-33 55 -33 60 0 5 -4 9 -10 9 -5 0 -10 7 -10 15 0 8 -4 15 -8 15 -5 0 -14 11
-20 24 -10 23 -122 175 -177 241 -13 17 -25 36 -25 44 0 8 2 12 5 9 3 -2 59
47 124 111 280 273 657 640 799 777 459 444 468 454 436 455 -16 1 -33 0 -39
-1 -5 -1 -28 -2 -50 -1 -22 1 -51 1 -65 0 -31 -1 -37 -1 -77 4 -17 2 -30 0
-27 -5 4 -7 -20 -5 -78 7 -10 2 -18 0 -18 -3 0 -4 -30 -6 -67 -4 -86 3 -123 3
-148 -2 -11 -2 -28 1 -37 6 -12 5 -18 5 -18 -1 0 -6 -9 -7 -22 -2 -12 4 -36 5
-53 1 -17 -4 -39 -5 -50 -3 -43 8 -74 9 -69 1 4 -7 -20 -5 -78 7 -10 2 -18 0
-18 -3 0 -7 -46 -6 -117 1 -17 2 -30 0 -27 -5 4 -7 -20 -5 -78 7 -10 2 -18 0
-18 -3 0 -7 -46 -6 -117 1 -17 2 -29 -1 -27 -5 3 -5 -7 -6 -22 -2 -16 4 -34 7
-41 6 -12 -2 -33 -2 -118 -2 -16 0 -39 -2 -50 -4 -11 -2 -28 1 -37 6 -12 5
-18 5 -18 -1 0 -6 -9 -7 -22 -2 -12 4 -36 5 -53 1 -17 -4 -39 -5 -50 -3 -11 3
-31 4 -45 3 -30 -2 -36 -2 -77 3 -17 2 -30 0 -27 -5 4 -7 -20 -5 -78 7 -10 2
-18 0 -18 -3 0 -8 -89 -6 -97 1 -3 3 -16 2 -29 -3 -14 -6 -26 -6 -29 1 -4 5
-10 7 -15 4 -5 -3 -24 -6 -43 -7 -29 -1 -57 -24 -227 -188 l-193 -187 -66 33
c-73 37 -178 83 -231 104 -19 7 -39 17 -45 22 -5 4 -18 8 -30 8 -12 0 -25 4
-30 9 -9 8 -188 70 -218 75 -7 1 -39 10 -72 20 -33 10 -67 20 -75 22 -50 13
-139 34 -160 38 -14 3 -36 8 -50 11 -43 10 -263 44 -320 50 -30 3 -71 8 -90
11 -39 6 -566 14 -572 9z m347 -1489 c72 -3 141 -8 155 -10 14 -3 43 -7 65
-10 34 -4 116 -20 165 -31 8 -2 24 -4 34 -4 15 -1 -5 -25 -71 -88 -50 -49
-184 -178 -298 -288 -114 -110 -242 -234 -285 -275 -203 -195 -463 -446 -570
-550 -65 -63 -200 -194 -300 -290 -100 -96 -231 -222 -290 -280 -59 -58 -162
-157 -229 -221 -66 -64 -121 -121 -121 -127 0 -5 42 -54 93 -107 108 -114 139
-147 307 -325 69 -72 145 -153 170 -179 25 -27 101 -108 170 -181 69 -73 150
-159 180 -191 30 -32 109 -115 175 -185 154 -164 155 -165 315 -334 74 -78
151 -159 170 -180 19 -20 91 -97 160 -170 69 -73 141 -150 160 -170 19 -21
105 -110 190 -200 85 -89 157 -166 158 -171 2 -5 -1 -10 -7 -10 -14 -2 -30 -6
-33 -9 -2 -1 -10 -3 -18 -5 -8 -2 -26 -7 -40 -10 -14 -3 -34 -8 -45 -10 -11
-2 -29 -6 -40 -8 -11 -3 -45 -8 -75 -12 -30 -4 -64 -9 -75 -12 -39 -8 -192
-17 -300 -16 -143 0 -266 9 -370 29 -16 3 -43 7 -60 10 -42 7 -195 43 -225 54
-14 4 -34 11 -45 16 -11 4 -24 8 -30 8 -5 1 -23 6 -40 13 -54 20 -70 26 -82
28 -6 2 -76 34 -155 73 -126 61 -375 216 -433 269 -11 10 -45 39 -76 65 -100
84 -223 211 -300 309 -18 24 -36 46 -39 49 -24 20 -171 259 -224 363 -35 70
-65 129 -65 130 0 4 -13 40 -37 102 -64 170 -110 361 -129 545 -4 36 -9 79
-11 95 -5 36 -4 305 0 355 2 19 7 64 11 100 5 36 10 76 11 90 1 14 3 25 4 25
2 0 6 19 14 65 3 19 10 50 15 68 5 17 7 32 5 32 -3 0 -2 6 3 13 4 6 8 17 9 22
5 34 60 201 67 206 5 3 8 9 7 13 -4 17 100 253 140 316 5 8 33 53 61 100 89
147 189 270 340 422 80 81 149 145 152 141 4 -3 9 2 13 11 3 9 12 16 20 16 8
0 14 4 14 8 0 22 287 206 415 266 64 31 127 59 135 61 3 1 19 7 35 14 60 25
202 70 285 91 105 27 112 28 230 46 19 3 46 7 60 10 14 2 75 7 135 10 61 3
112 8 113 9 2 2 9 2 15 0 7 -2 71 -6 142 -9z m1785 -982 c0 -4 11 -22 25 -40
14 -18 25 -37 25 -43 0 -6 4 -11 9 -11 5 0 14 -14 21 -31 7 -17 19 -36 26 -44
20 -20 140 -272 169 -355 14 -41 30 -84 36 -95 5 -11 11 -29 14 -40 2 -11 15
-65 29 -120 14 -55 27 -113 30 -130 3 -16 7 -41 10 -55 6 -26 12 -81 23 -205
11 -131 5 -413 -12 -489 -2 -11 -7 -37 -9 -56 -3 -19 -10 -57 -16 -85 -6 -27
-12 -59 -14 -70 -15 -85 -96 -327 -138 -415 -12 -25 -22 -47 -23 -50 -2 -10
-39 -85 -44 -90 -4 -3 -17 -27 -30 -53 -13 -27 -47 -84 -76 -129 l-53 -80 -38
39 c-32 32 -207 216 -354 373 -19 21 -69 73 -110 117 -41 44 -131 139 -200
212 -69 73 -147 157 -175 186 -27 29 -106 112 -175 185 -69 73 -145 154 -170
180 -25 26 -64 68 -88 94 l-43 46 75 73 c40 39 176 171 301 292 125 121 280
272 344 335 65 63 221 214 346 335 125 121 234 228 243 237 13 14 17 14 29 3
7 -8 13 -17 13 -21z"/>
</g>
</svg>
