<svg width="52" height="52" fill="none" xmlns="http://www.w3.org/2000/svg"><path fill="#F2F6FC" d="M0 0h52v52H0z"/><path d="M36.903 26.839h-5.032a1.68 1.68 0 0 1-1.677-1.678v-1.677a1.68 1.68 0 0 1 1.677-1.678h5.032a1.68 1.68 0 0 1 1.678 1.678v1.677a1.68 1.68 0 0 1-1.678 1.678Zm-5.032-3.355v1.679l5.032-.002v-1.677h-5.032ZM20.129 26.839h-5.032a1.68 1.68 0 0 1-1.678-1.678v-1.677a1.68 1.68 0 0 1 1.678-1.678h5.032a1.68 1.68 0 0 1 1.677 1.678v1.677a1.68 1.68 0 0 1-1.677 1.678Z" fill="#41B7E9"/><path d="M36.903 26.839h-5.032a1.68 1.68 0 0 1-1.677-1.678v-1.677a1.68 1.68 0 0 1 1.677-1.678h5.032a1.68 1.68 0 0 1 1.678 1.678v1.677a1.68 1.68 0 0 1-1.678 1.678ZM26 39.3 8.387 29.614v8.624L26 47.926l17.613-9.688v-8.624L26 39.3Z" fill="#41B7E9"/><path d="M16.774 11.742h5.032v1.677h-5.032v-1.677Z" fill="#1F2428"/><path d="M52 24.588c0-5.892-4.182-11.066-9.944-12.3l-2.332-.5a3.239 3.239 0 0 0-.405-.495l-.429-.428a6.623 6.623 0 0 0 1.368-4.011A6.862 6.862 0 0 0 33.404 0H18.596a6.862 6.862 0 0 0-6.854 6.854c0 1.448.491 2.87 1.369 4.01l-.429.43a3.198 3.198 0 0 0-.405.494l-2.332.5C4.182 13.523 0 18.696 0 24.588v2.742c0 .73.21 1.428.601 2.025A3.676 3.676 0 0 0 0 31.379v6.016c0 .73.21 1.427.601 2.024A3.676 3.676 0 0 0 0 41.444v4.338c0 .616.166 1.202.448 1.73-.275.3-.448.695-.448 1.133v1.678A1.68 1.68 0 0 0 1.677 52h6.71c.81 0 1.488-.578 1.644-1.344A5.237 5.237 0 0 0 13.523 52h24.954c1.33 0 2.554-.507 3.492-1.344A1.681 1.681 0 0 0 43.613 52h6.71A1.68 1.68 0 0 0 52 50.323v-1.678c0-.438-.173-.833-.448-1.132.282-.53.448-1.115.448-1.731v-4.338c0-.73-.21-1.428-.601-2.025A3.676 3.676 0 0 0 52 37.395v-6.016c0-.73-.21-1.427-.601-2.024A3.675 3.675 0 0 0 52 27.33v-2.742ZM14.851 10.31a4.922 4.922 0 0 1-1.432-3.456 5.183 5.183 0 0 1 5.177-5.177h14.808a5.183 5.183 0 0 1 5.177 5.177 4.922 4.922 0 0 1-1.432 3.456l-.593.593 1.576 1.576a1.535 1.535 0 0 1-1.084 2.618h-8.852l-.878-1.756a1.674 1.674 0 0 0 1.198-1.6v-1.676h5.032a3.358 3.358 0 0 0 3.355-3.355 3.358 3.358 0 0 0-3.355-3.355H18.452a3.358 3.358 0 0 0-3.355 3.355 3.358 3.358 0 0 0 3.355 3.355h5.032v1.677c0 .757.507 1.391 1.197 1.6l-.877 1.755h-8.851a1.535 1.535 0 0 1-1.085-2.618l1.576-1.576-.593-.593Zm10.31 9.819v-3.996L26 14.456l.839 1.677v3.996H25.16Zm-6.71-11.742a1.68 1.68 0 0 1-1.677-1.677 1.68 1.68 0 0 1 1.678-1.678h15.096a1.68 1.68 0 0 1 1.678 1.678 1.68 1.68 0 0 1-1.678 1.677H18.452Zm6.71 1.678h1.678v1.677H25.16v-1.678ZM1.677 48.645h1.678v1.678H1.677v-1.678Zm6.71 1.678H5.032v-1.678h3.355v1.678Zm1.678-2.646V20.13H8.387v26.839H2.068a2.01 2.01 0 0 1-.39-1.186v-4.338c0-.433.14-.842.39-1.186H6.71v-1.677H2.068a2.01 2.01 0 0 1-.39-1.186v-6.016c0-.432.14-.842.39-1.186h2.964v-1.677H2.068a2.01 2.01 0 0 1-.39-1.186v-2.742c0-5.107 3.623-9.591 8.618-10.66l1.451-.312a3.213 3.213 0 0 0 3.206 3.158h8.53v3.355a1.68 1.68 0 0 0 1.678 1.677v28.517H13.522a3.582 3.582 0 0 1-3.457-2.646Zm31.87-27.548v27.548a3.582 3.582 0 0 1-3.458 2.646H26.84V21.806a1.68 1.68 0 0 0 1.677-1.677v-3.355h8.532a3.212 3.212 0 0 0 3.205-3.158l1.452.312c4.994 1.07 8.618 5.553 8.618 10.66v2.742c0 .433-.141.842-.391 1.186H45.29v1.678h4.642c.25.343.39.753.39 1.186v6.015c0 .432-.14.842-.39 1.186h-2.964v1.677h2.964c.25.344.39.753.39 1.186v4.338c0 .433-.14.842-.39 1.186h-6.32V20.129h-1.677Zm1.678 28.516h3.355v1.678h-3.355v-1.678Zm6.71 1.678h-1.678v-1.678h1.678v1.678Z" fill="#1F2428"/><path d="M30.194 11.742h5.032v1.677h-5.032v-1.677Z" fill="#1F2428"/></svg>