<svg width="52" height="52" fill="none" xmlns="http://www.w3.org/2000/svg"><path fill="#fff" d="M0 0h52v52H0z"/><path d="M17.613 37.742c5.558 0 10.064-4.506 10.064-10.065 0-5.558-4.506-10.064-10.064-10.064-5.559 0-10.065 4.506-10.065 10.064 0 5.559 4.506 10.065 10.065 10.065ZM46.13 36.903h-8.388a2.52 2.52 0 0 1-2.516-2.516v-5.032a2.52 2.52 0 0 1 2.516-2.516h8.387a2.52 2.52 0 0 1 2.516 2.516v5.032a2.52 2.52 0 0 1-2.516 2.516ZM35.226 39.42h13.42v4.193h-13.42v-4.194Z" fill="#41B7E9"/><path d="M47.806 10.065H34.21c-.51-1.001-1.19-1.882-1.995-2.616l11.878-3.466a2.51 2.51 0 0 0 2.036 1.05 2.52 2.52 0 0 0 2.516-2.517A2.52 2.52 0 0 0 46.13 0a2.513 2.513 0 0 0-2.502 2.372L30.494 6.203A9.197 9.197 0 0 0 26 5.033a9.197 9.197 0 0 0-4.494 1.17L8.373 2.372A2.513 2.513 0 0 0 5.87 0a2.52 2.52 0 0 0-2.516 2.516A2.52 2.52 0 0 0 5.87 5.032a2.51 2.51 0 0 0 2.036-1.049l11.878 3.466a9.21 9.21 0 0 0-1.995 2.616H4.194A4.198 4.198 0 0 0 0 14.258v30.194a4.198 4.198 0 0 0 4.194 4.193H6.71v.839A2.52 2.52 0 0 0 9.226 52h1.677a2.52 2.52 0 0 0 2.516-2.516v-.839h18.537A4.2 4.2 0 0 0 36.065 52h11.741A4.198 4.198 0 0 0 52 47.806V14.258a4.198 4.198 0 0 0-4.194-4.193ZM46.13 1.677a.839.839 0 1 1 0 1.678.839.839 0 0 1 0-1.678ZM5.871 3.355a.839.839 0 1 1 0-1.678.839.839 0 0 1 0 1.678ZM26 6.71a7.54 7.54 0 0 1 6.258 3.355H19.742A7.54 7.54 0 0 1 26 6.71ZM1.677 44.452V14.258a2.52 2.52 0 0 1 2.517-2.516h43.612a2.52 2.52 0 0 1 2.517 2.516v6.732a4.153 4.153 0 0 0-1.678-.775v-5.118a1.68 1.68 0 0 0-1.677-1.678H5.032a1.68 1.68 0 0 0-1.677 1.678v25.161a1.68 1.68 0 0 0 1.677 1.677h26.839v5.033H4.194a2.52 2.52 0 0 1-2.517-2.516Zm45.29-24.323H36.066a4.198 4.198 0 0 0-4.194 4.194v15.935H5.032V15.097h41.936v5.032Zm-10.902 1.677h11.741c1.092 0 2.015.704 2.362 1.678H33.703a2.513 2.513 0 0 1 2.361-1.678ZM11.742 49.484a.839.839 0 0 1-.839.839H9.226a.839.839 0 0 1-.839-.84v-.838h3.355v.839Zm36.064.839H36.065a2.52 2.52 0 0 1-2.517-2.517v-.838h16.775v.838a2.52 2.52 0 0 1-2.517 2.517Zm2.517-5.033H33.548V25.161h16.775V45.29Z" fill="#1F2428"/><path d="M17.613 38.58c6.012 0 10.903-4.89 10.903-10.903 0-6.011-4.891-10.903-10.903-10.903-6.012 0-10.903 4.892-10.903 10.903 0 6.012 4.891 10.904 10.903 10.904Zm-1.845-4.97a28.805 28.805 0 0 1 1.845-.062c.628 0 1.243.024 1.845.062-.558 2.153-1.341 3.293-1.845 3.293s-1.287-1.14-1.845-3.293Zm-.702 2.928a9.225 9.225 0 0 1-3.815-2.195 18.808 18.808 0 0 1 2.835-.573c.256 1.055.58 2.002.98 2.767Zm5.049-8.022a25.794 25.794 0 0 1-.311 3.436 30.172 30.172 0 0 0-4.382 0 25.761 25.761 0 0 1-.311-3.436h5.004ZM15.11 26.84c.035-1.288.148-2.433.311-3.436a30.17 30.17 0 0 0 4.382 0c.163 1.003.276 2.148.31 3.436h-5.003Zm6.029 6.932c1.037.134 1.993.327 2.834.572a9.216 9.216 0 0 1-3.814 2.195c.4-.766.724-1.713.98-2.767Zm.325-1.647c.183-1.148.294-2.37.327-3.608h5.004a9.171 9.171 0 0 1-1.632 4.446c-1.058-.37-2.318-.652-3.699-.838Zm.327-5.285a28.087 28.087 0 0 0-.327-3.608c1.38-.186 2.641-.468 3.699-.838a9.15 9.15 0 0 1 1.632 4.446h-5.004Zm-.652-5.255c-.255-1.054-.58-2.001-.98-2.767a9.224 9.224 0 0 1 3.814 2.195c-.84.245-1.798.439-2.834.572Zm-1.682.16c-.602.039-1.217.062-1.845.062-.628 0-1.243-.023-1.845-.062.558-2.152 1.34-3.292 1.845-3.292.504 0 1.287 1.14 1.845 3.292Zm-5.372-.16a18.795 18.795 0 0 1-2.835-.573 9.215 9.215 0 0 1 3.815-2.195c-.4.767-.724 1.714-.98 2.768Zm-.325 1.647a27.91 27.91 0 0 0-.327 3.608H8.43a9.17 9.17 0 0 1 1.632-4.446c1.058.37 2.317.652 3.699.838Zm-.327 5.285a28.07 28.07 0 0 0 .327 3.608c-1.38.186-2.641.468-3.699.838a9.15 9.15 0 0 1-1.632-4.446h5.004ZM6.71 43.613h1.677v1.677H6.71v-1.677ZM10.065 43.613h1.677v1.677h-1.678v-1.677ZM13.42 43.613h1.677v1.677h-1.678v-1.677ZM35.226 41.935H45.29v1.678H35.226v-1.678ZM46.968 41.935h1.677v1.678h-1.677v-1.678ZM35.226 38.58h13.42v1.678h-13.42v-1.677Z" fill="#1F2428"/></svg>